<?xml version="1.0" encoding="utf-8"?><svg xmlns="http://www.w3.org/2000/svg" xmlns:xlink="http://www.w3.org/1999/xlink"><symbol viewBox="0 0 24 24" aria-labelledby="aback-icon-desc aback-icon-title" id="back-icon"><title id="aback-icon-title">Back</title><desc id="aback-icon-desc">A leftward arrow</desc><path d="M22 10H6.83l3.59-3.59a2 2 0 0 0-2.83-2.82l-7 7a2 2 0 0 0 0 2.83l7 7a2 2 0 0 0 2.83-2.83L6.83 14H22a2 2 0 0 0 0-4z"/></symbol><symbol viewBox="0 0 24 24" aria-labelledby="berror-icon-desc berror-icon-title" id="error-icon"><title id="berror-icon-title">Error</title><desc id="berror-icon-desc">A red sign with a white exclamation mark</desc><path d="M13.74 3l9 15.7A2.21 2.21 0 0 1 20.9 22H3.1a2.21 2.21 0 0 1-1.8-3.34l9-15.7a2 2 0 0 1 3.44.04z" fill="#ff4136"/><path d="M10.59 17.82a1.41 1.41 0 1 1 1.4 1.4 1.42 1.42 0 0 1-1.4-1.4zm2.77-9.63a32.3 32.3 0 0 1-.61 4.5l-.34 2.11h-.81l-.34-2.11a32.77 32.77 0 0 1-.61-4.5A1.24 1.24 0 0 1 12 6.78a1.24 1.24 0 0 1 1.36 1.4z" fill="#fff"/></symbol><symbol viewBox="0 0 24 24" aria-labelledby="cforward-icon-desc cforward-icon-title" id="forward-icon"><title id="cforward-icon-title">Forward</title><desc id="cforward-icon-desc">A rightward arrow</desc><use xlink:href="#back-icon" transform="rotate(180 12 12)"/></symbol><symbol viewBox="0 0 24 24" aria-labelledby="dsearch-icon-desc dsearch-icon-title" id="search-icon"><title id="dsearch-icon-title">Search</title><desc id="dsearch-icon-desc">A magnifying glass</desc><path d="M22.41 19.59l-5.3-5.3a9 9 0 1 0-2.83 2.83l5.3 5.3a2 2 0 0 0 2.83-2.83zM3.5 9.5a6 6 0 1 1 6 6 6 6 0 0 1-6-6z"/></symbol></svg>